<?xml version="1.0" standalone="no"?>
<!DOCTYPE svg PUBLIC "-//W3C//DTD SVG 20010904//EN"
 "http://www.w3.org/TR/2001/REC-SVG-20010904/DTD/svg10.dtd">
<svg version="1.0" xmlns="http://www.w3.org/2000/svg"
 width="1024.000000pt" height="1024.000000pt" viewBox="0 0 1024.000000 1024.000000"
 preserveAspectRatio="xMidYMid meet">
<metadata>
Created by potrace 1.14, written by Peter Selinger 2001-2017
</metadata>
<g transform="translate(0.000000,1024.000000) scale(0.100000,-0.100000)"
fill="#000000" stroke="none">
<path d="M0 5120 l0 -5120 5120 0 5120 0 0 5120 0 5120 -5120 0 -5120 0 0
-5120z m8065 2031 c136 -9 273 -28 287 -40 4 -3 -91 -45 -210 -93 l-217 -87
-235 -6 c-339 -8 -918 -47 -1200 -81 -150 -18 -543 -83 -752 -124 -528 -105
-1080 -291 -1520 -511 l-158 -79 -185 115 c-507 317 -940 481 -1539 580 -26 5
-11 -13 105 -132 191 -195 283 -322 365 -505 32 -70 38 -94 38 -155 1 -63 -2
-75 -24 -98 -25 -27 -70 -55 -89 -55 -6 0 -32 44 -59 98 -67 136 -162 285
-261 410 -159 202 -442 466 -644 600 -37 25 -64 49 -60 53 18 16 163 29 335
29 311 0 574 -42 909 -144 357 -108 570 -203 912 -403 135 -79 184 -102 200
-97 12 3 81 31 152 61 507 216 957 357 1465 462 566 116 921 162 1585 204 118
8 672 6 800 -2z m283 -358 c7 -95 -69 -416 -156 -658 -73 -203 -203 -473 -314
-650 -80 -128 -176 -265 -186 -265 -4 0 -25 28 -47 61 -149 226 -393 319 -837
319 -472 0 -986 -146 -1347 -383 -252 -166 -455 -408 -541 -644 -32 -91 -67
-249 -72 -328 l-2 -50 134 -67 c504 -251 1049 -367 1684 -357 119 2 216 3 216
1 0 -15 -83 -123 -145 -190 -342 -367 -869 -512 -1482 -407 -262 45 -490 135
-702 277 -350 235 -571 553 -670 963 -24 103 -26 125 -25 340 0 210 3 241 27
357 47 221 113 364 217 469 67 68 146 126 156 116 3 -3 -12 -52 -34 -109 -147
-376 -179 -773 -92 -1119 48 -187 180 -457 283 -578 70 -82 215 -215 286 -262
150 -101 355 -186 541 -226 123 -26 410 -25 495 1 l60 19 -60 13 c-33 7 -118
24 -190 38 -166 32 -278 65 -435 127 -371 146 -614 370 -710 657 -29 84 -33
111 -34 203 l-1 106 53 106 c29 59 80 142 113 186 84 112 345 372 459 457 275
207 629 384 1125 564 370 135 622 241 973 412 725 352 1171 551 1227 546 28
-3 30 -6 33 -45z m-2493 -550 c-22 -90 -77 -163 -149 -198 -46 -23 -73 -28
-162 -33 l-106 -5 31 61 c64 128 183 200 330 201 l63 1 -7 -27z m1053 -871
c10 -7 8 -14 -8 -34 -11 -14 -47 -78 -81 -143 -43 -82 -64 -113 -70 -103 -5 7
-18 42 -30 78 -12 36 -36 95 -55 132 -18 36 -30 69 -27 72 9 9 256 7 271 -2z
m-3246 -124 c-63 -195 -87 -377 -79 -597 5 -154 38 -364 71 -458 7 -21 17 -72
21 -113 4 -41 15 -122 26 -180 10 -57 17 -106 15 -108 -7 -6 -173 164 -205
211 -109 160 -155 354 -154 647 1 136 6 185 26 280 32 147 61 223 104 271 34
37 193 152 201 145 2 -2 -10 -46 -26 -98z m2808 92 c0 -5 -15 -38 -34 -72 -18
-35 -50 -104 -71 -154 l-38 -92 -69 137 c-37 75 -68 137 -68 137 0 5 206 45
273 53 4 1 7 -3 7 -9z m737 -15 c131 -41 130 -33 16 -170 l-98 -118 -7 109
c-3 60 -11 122 -17 137 -17 43 -14 67 8 67 11 0 55 -11 98 -25z m-1177 -94 c0
-4 -17 -46 -39 -92 -21 -46 -49 -114 -62 -151 -21 -60 -39 -87 -39 -58 0 5
-29 53 -65 106 -36 53 -65 98 -63 99 21 18 227 101 256 104 6 1 12 -3 12 -8z
m1500 -251 c-1 -15 -62 -65 -109 -90 -19 -10 -22 -10 -18 2 17 40 47 149 53
193 l7 50 33 -70 c19 -38 34 -76 34 -85z m-1955 -4 c-14 -42 -29 -109 -33
-149 -4 -39 -10 -72 -14 -72 -4 0 -37 36 -73 80 l-65 80 23 22 c23 22 180 123
185 118 1 -1 -9 -37 -23 -79z m-2445 20 c0 -3 -7 -38 -16 -78 -23 -108 -44
-291 -44 -381 0 -68 -4 -88 -30 -141 -54 -110 -99 -343 -88 -457 13 -136 -56
102 -83 286 -33 224 -21 465 28 577 16 34 42 61 119 120 91 71 114 85 114 74z
m2206 -641 c0 -74 -1 -135 -4 -135 -15 0 -223 94 -232 105 -8 10 3 21 52 49
35 19 86 53 113 75 28 22 55 40 60 40 6 1 10 -51 11 -134z m384 8 c0 -16 11
-82 24 -148 13 -66 22 -122 21 -123 -4 -5 -267 66 -274 73 -3 3 6 13 20 22 46
33 112 98 151 151 43 59 58 65 58 25z m440 -183 c17 -69 33 -133 36 -142 7
-23 -25 -23 -163 0 l-102 17 62 81 c34 45 77 102 95 129 18 26 35 46 37 44 2
-2 18 -60 35 -129z m826 -25 c24 -70 43 -129 42 -130 -13 -13 -238 -32 -238
-21 0 2 15 28 33 59 19 30 51 94 72 141 21 47 40 84 42 82 2 -2 24 -61 49
-131z m-407 -7 c23 -73 45 -139 48 -147 5 -12 -15 -13 -127 -8 -73 4 -135 8
-137 11 -2 2 14 28 35 56 22 29 60 90 84 136 23 46 46 84 49 84 3 0 25 -60 48
-132z"/>
</g>
</svg>
